:SAMPLES-PER-SECOND 30
:FRAME-RANGE 1-744
:FULLY-SPECIFIED
:DEGREES
466
root  -20.6982 37.9347 101.766 15.7648 -55.0481 -7.12253
RightUpLeg  -26.7061 -2.10376 0.303661
RightLeg  10.9388 -21.3326 0.0617637
RightFoot  2.7029 -0.423944 3.58986
RightToes  -5.28216e-011 1.2921e-014 -6.02303e-014
Spine  -3.59299 -3.12242 5.38282
Spine1  8.5518 -4.63392 4.68378
HEad  9.99625 -8.81073 1.19385
LeftShoulder1  2.02059 -5.77663 -15.7198
LeftArm  -1.15763 -13.1037 -53.513
LeftForeArm  22.4838 -4.36716 -11.94
LeftHand  -0.0853328 3.73213 4.83506
RightShoulder  1.63018 1.44922 28.3198
RightArm  -38.6368 -7.38928 50.3013
RightForeArm  64.5859 -4.1957 -4.15083
RightHand  0.171817 -6.77079 -15.8905
LeftUpLeg  -1.90081 8.82537 18.045
LeftLeg  37.5289 13.7981 11.471
LeftFoot  8.36805 1.19125 -7.146
LeftToes  -9.4837e-011 -7.11147e-011 -1.07582e-011
467
root  -21.9943 38.0464 101.899 16.2141 -58.6576 -8.0835
RightUpLeg  -25.2407 -1.22079 1.9794
RightLeg  12.1532 -18.2385 0.0686731
RightFoot  0.401266 -0.327711 3.21168
RightToes  -5.28216e-011 1.2921e-014 -6.02303e-014
Spine  -3.57533 -2.52558 6.62936
Spine1  9.00693 -3.72605 3.79684
HEad  10.8632 -7.09307 0.705849
LeftShoulder1  1.97668 -5.39461 -16.2349
LeftArm  -0.387792 -10.5669 -53.0617
LeftForeArm  24.143 -3.80407 -12.2884
LeftHand  -0.0768004 3.89656 4.62919
RightShoulder  1.78966 1.95587 28.059
RightArm  -36.7574 -3.24928 49.994
RightForeArm  63.9256 -4.3694 -3.29346
RightHand  0.130021 -6.44915 -16.0428
LeftUpLeg  -4.58665 9.80951 16.6782
LeftLeg  42.6966 8.55037 8.74308
LeftFoot  2.35168 1.05962 -8.93222
LeftToes  -9.4837e-011 -7.11147e-011 -1.07582e-011
468
root  -23.2821 38.14 102.069 16.7824 -62.2878 -9.23785
RightUpLeg  -23.2855 -0.750137 3.41424
RightLeg  12.9674 -14.8526 0.46444
RightFoot  -1.87602 -0.254227 2.9148
RightToes  -5.28216e-011 1.2921e-014 -6.02303e-014
Spine  -3.29213 -2.16769 7.4744
Spine1  8.82476 -3.08699 3.11016
HEad  12.2134 -4.6196 0.108724
LeftShoulder1  1.84926 -4.73904 -16.5256
LeftArm  0.722524 -6.67886 -52.8849
LeftForeArm  25.5945 -3.85389 -12.5745
LeftHand  -0.0674015 4.08121 4.3477
RightShoulder  1.86152 2.16813 28.0598
RightArm  -34.4307 1.67035 49.674
RightForeArm  63.8673 -4.56195 -2.1989
RightHand  0.109612 -6.28561 -16.2504
LeftUpLeg  -7.27749 9.96831 14.785
LeftLeg  45.9543 5.31973 6.27071
LeftFoot  -1.07471 0.912942 -10.0729
LeftToes  -9.4837e-011 -7.11147e-011 -1.07582e-011
469
root  -24.5453 38.224 102.262 17.2512 -65.8114 -10.098
RightUpLeg  -21.4226 -0.426158 4.501
RightLeg  13.8353 -11.4956 0.629123
RightFoot  -3.82891 -0.172559 2.2305
RightToes  -5.28216e-011 1.2921e-014 -6.02303e-014
Spine  -3.11915 -1.9615 7.90788
Spine1  8.54968 -2.68264 2.56972
HEad  12.913 -1.90017 -0.467032
LeftShoulder1  1.73791 -4.08319 -17.1045
LeftArm  2.48081 -2.24811 -52.4884
LeftForeArm  26.4677 -4.35637 -12.8584
LeftHand  -0.0639005 4.09568 4.05274
RightShoulder  1.94332 2.4369 27.8949
RightArm  -31.4984 6.54066 49.8133
RightForeArm  62.3566 -4.88523 -0.635543
RightHand  0.056025 -5.88891 -16.4616
LeftUpLeg  -10.3928 9.13629 12.2843
LeftLeg  47.7673 4.91917 6.20042
LeftFoot  -3.28413 0.741211 -10.2257
LeftToes  -9.4837e-011 -7.11147e-011 -1.07582e-011
470
root  -25.789 38.2887 102.469 17.8146 -69.0471 -11.046
RightUpLeg  -19.4559 -0.42408 5.35079
RightLeg  14.6843 -8.19058 0.850931
RightFoot  -5.73456 -0.0944422 1.1328
RightToes  -5.28216e-011 1.2921e-014 -6.02303e-014
Spine  -2.86998 -1.70851 8.44995
Spine1  8.17964 -2.23971 1.87702
HEad  12.6781 0.48273 -0.91093
LeftShoulder1  1.65756 -3.58068 -17.6994
LeftArm  5.12517 1.94224 -52.3023
LeftForeArm  26.6179 -4.6941 -13.3064
LeftHand  -0.0591961 4.19077 3.85661
RightShoulder  2.01264 2.71301 27.4873
RightArm  -28.7098 10.9799 50.3947
RightForeArm  60.0317 -5.21697 0.838159
RightHand  -0.0332112 -5.25122 -16.927
LeftUpLeg  -13.7854 7.4652 9.89244
LeftLeg  48.4623 6.26395 7.94193
LeftFoot  -5.82374 0.502708 -9.69258
LeftToes  -9.4837e-011 -7.11147e-011 -1.07582e-011
471
root  -27.0324 38.3395 102.688 18.2224 -72.2811 -11.9999
RightUpLeg  -17.0984 -1.02616 5.79093
RightLeg  15.3151 -4.46143 1.51044
RightFoot  -7.53253 -0.051984 0.0272345
RightToes  -5.28216e-011 1.2921e-014 -6.02303e-014
Spine  -2.54034 -1.2243 8.88683
Spine1  7.95505 -1.58482 1.18475
HEad  12.2794 2.23836 -1.33971
LeftShoulder1  1.58469 -3.13072 -18.2939
LeftArm  5.92057 5.49336 -52.638
LeftForeArm  28.7957 -3.88102 -13.731
LeftHand  -0.0529406 4.32375 3.55517
RightShoulder  2.06613 3.0202 26.6856
RightArm  -26.3627 14.6992 51.338
RightForeArm  57.5344 -5.49567 1.99715
RightHand  -0.0935349 -4.83654 -17.1034
LeftUpLeg  -16.9264 5.48336 7.85551
LeftLeg  47.7719 8.24985 10.0258
LeftFoot  -7.08276 0.373556 -8.89469
LeftToes  -9.4837e-011 -7.11147e-011 -1.07582e-011
472
root  -28.2708 38.3865 102.91 18.8811 -75.5338 -13.0565
RightUpLeg  -14.8984 -1.67093 5.90259
RightLeg  16.0434 -0.639514 2.12654
RightFoot  -9.12142 -0.0454098 -0.844382
RightToes  -5.28216e-011 1.2921e-014 -6.02303e-014
Spine  -2.39784 -0.614882 9.30272
Spine1  7.84733 -0.807194 0.350458
HEad  11.9212 3.78647 -1.51423
LeftShoulder1  1.4805 -2.60626 -18.7475
LeftArm  5.21896 8.70498 -53.2509
LeftForeArm  31.8557 -2.47946 -14.0245
LeftHand  -0.0429594 4.60897 3.09407
RightShoulder  2.15616 3.44233 25.9554
RightArm  -24.7344 18.4398 52.2707
RightForeArm  55.2224 -5.66936 2.59565
RightHand  -0.154987 -4.42655 -17.3513
LeftUpLeg  -19.9274 3.05693 6.15314
LeftLeg  45.555 10.3271 11.466
LeftFoot  -8.11441 0.258595 -7.44903
LeftToes  -9.4837e-011 -7.11147e-011 -1.07582e-011
473
root  -29.5499 38.4098 103.119 19.9511 -78.4876 -14.4624
RightUpLeg  -12.4765 -2.01386 5.83808
RightLeg  16.3258 2.44317 2.55014
RightFoot  -10.6944 -0.0592279 -2.31894
RightToes  -5.28216e-011 1.2921e-014 -6.02303e-014
Spine  -2.59183 -0.0212988 9.63127
Spine1  7.97383 -0.0647133 -0.568834
HEad  11.7991 4.96299 -1.51222
LeftShoulder1  1.35849 -2.01233 -19.2864
LeftArm  3.61067 11.6565 -53.7434
LeftForeArm  34.6794 -0.812855 -14.1441
LeftHand  -0.0353039 4.89493 2.64428
RightShoulder  2.21886 3.78011 25.2936
RightArm  -23.4378 22.1182 53.3186
RightForeArm  53.3471 -5.20812 3.00965
RightHand  -0.215925 -4.03891 -17.6932
LeftUpLeg  -22.551 0.288631 5.18189
LeftLeg  41.6003 11.3594 10.9774
LeftFoot  -8.65614 0.220253 -7.18034
LeftToes  -9.4837e-011 -7.11147e-011 -1.07582e-011
474
root  -30.8784 38.4211 103.305 21.1037 -81.0878 -16.0253
RightUpLeg  -9.69202 -2.10715 5.63656
RightLeg  16.1816 4.7112 2.67174
RightFoot  -12.085 -0.105566 -3.68252
RightToes  -5.28216e-011 1.2921e-014 -6.02303e-014
Spine  -2.99432 0.499669 9.62332
Spine1  8.2701 0.547991 -1.27342
HEad  11.9989 5.94322 -1.32929
LeftShoulder1  1.24751 -1.47706 -19.8625
LeftArm  1.38107 14.4349 -54.116
LeftForeArm  36.8395 1.00176 -14.0598
LeftHand  -0.0304961 5.15026 2.36423
RightShoulder  2.27827 4.12975 24.5921
RightArm  -22.6359 25.2027 54.5455
RightForeArm  52.6403 -3.68588 3.28858
RightHand  -0.241897 -3.88416 -17.9089
LeftUpLeg  -24.3145 -2.39828 4.85222
LeftLeg  35.483 10.9421 8.6176
LeftFoot  -7.82346 0.270237 -7.26828
LeftToes  -9.4837e-011 -7.11147e-011 -1.07582e-011
475
root  -32.2391 38.4111 103.48 21.7303 -83.4 -17.0227
RightUpLeg  -7.00495 -2.33131 5.16687
RightLeg  16.2329 6.74258 2.72359
RightFoot  -13.2849 -0.183718 -5.53821
RightToes  -5.28216e-011 1.2921e-014 -6.02303e-014
Spine  -3.39406 0.981496 9.448
Spine1  8.33726 1.15925 -2.11459
HEad  12.6044 6.23739 -0.944835
LeftShoulder1  1.15711 -1.08012 -20.1816
LeftArm  -0.496776 17.039 -54.5194
LeftForeArm  38.0376 2.72354 -13.925
LeftHand  -0.0278014 5.33378 2.18476
RightShoulder  2.30714 4.35811 24.0306
RightArm  -21.8278 27.752 55.4834
RightForeArm  52.1951 -2.75884 3.51371
RightHand  -0.275011 -3.67403 -17.9863
LeftUpLeg  -25.2401 -5.01783 4.9188
LeftLeg  27.4242 10.1981 6.02302
LeftFoot  -4.40691 0.498994 -7.79252
LeftToes  -9.4837e-011 -7.11147e-011 -1.07582e-011
476
root  -33.634 38.3408 103.639 24.9169 -85.2715 -20.6518
RightUpLeg  -4.16914 -2.52691 4.78641
RightLeg  16.219 8.34682 2.82078
RightFoot  -14.4113 -0.283953 -6.95693
RightToes  -5.28216e-011 1.2921e-014 -6.02303e-014
Spine  -3.83079 1.34225 9.32345
Spine1  8.4289 1.62558 -2.86032
HEad  13.4478 6.30297 -0.570085
LeftShoulder1  1.06939 -0.701472 -20.5053
LeftArm  -1.99457 19.402 -54.733
LeftForeArm  39.0292 4.06205 -13.7377
LeftHand  -0.0261905 5.45357 2.16751
RightShoulder  2.30927 4.48383 23.5474
RightArm  -21.0137 29.8136 56.3071
RightForeArm  52.0163 -2.33602 3.69616
RightHand  -0.253551 -3.80152 -17.8386
LeftUpLeg  -25.3445 -7.62584 5.64302
LeftLeg  18.0429 10.8417 4.23518
LeftFoot  1.12736 0.912332 -8.40478
LeftToes  -9.4837e-011 -7.11147e-011 -1.07582e-011
477
root  -35.0679 38.2317 103.767 28.1306 -86.7124 -24.4453
RightUpLeg  -1.05262 -2.35367 4.37965
RightLeg  16.0272 9.06943 2.61276
RightFoot  -15.7889 -0.406692 -7.71545
RightToes  -5.28216e-011 1.2921e-014 -6.02303e-014
Spine  -4.46992 1.48893 8.61233
Spine1  8.97764 1.85575 -3.29308
HEad  14.2484 6.18316 -0.227953
LeftShoulder1  0.977622 -0.313743 -20.849
LeftArm  -3.28184 21.4626 -54.7187
LeftForeArm  40.1603 4.90729 -13.4896
LeftHand  -0.0263211 5.4641 2.02478
RightShoulder  2.31789 4.59899 23.207
RightArm  -20.2622 31.1093 56.9229
RightForeArm  51.978 -1.81269 3.97525
RightHand  -0.233647 -3.9226 -17.712
LeftUpLeg  -24.4055 -4.97561 3.82651
LeftLeg  8.06797 7.30878 3.70174
LeftFoot  5.90757 1.45321 -9.80129
LeftToes  -9.4837e-011 -7.11147e-011 -1.07582e-011
478
root  -36.5278 38.0592 103.871 31.089 -87.9188 -28.0452
RightUpLeg  1.99578 -1.49496 3.97423
RightLeg  16.2452 8.84972 2.29376
RightFoot  -17.5096 -0.612142 -9.14532
RightToes  -5.28216e-011 1.2921e-014 -6.02303e-014
Spine  -5.33697 1.51581 7.50581
Spine1  9.95831 2.00032 -3.594
HEad  15.0177 5.40613 0.119596
LeftShoulder1  0.906173 -0.0362702 -20.9594
LeftArm  -4.1484 23.2791 -54.6857
LeftForeArm  40.6441 5.10675 -13.311
LeftHand  -0.0280811 5.67888 2.16824
RightShoulder  2.32995 4.68938 23.0168
RightArm  -19.6378 31.9224 57.2913
RightForeArm  51.9292 -1.72423 4.19844
RightHand  -0.223835 -3.97893 -17.5979
LeftUpLeg  -23.6157 -1.45082 1.96519
LeftLeg  0.707472 2.52738 2.93255
LeftFoot  2.85418 1.33302 -10.8211
LeftToes  -9.4837e-011 -7.11147e-011 -1.07582e-011
